#!OML:ASF H:\Terrain\Walking\May29\JustinRory\Justin.ASF
:FULLY-SPECIFIED
:DEGREES
212
root 11.9326 15.9585 9.22317 153.687 -50.0778 -149.815
lowerback 21.9639 0.00969493 2.99297
upperback 7.04177 -0.00236584 5.30779
thorax -4.54597 -0.453206 4.05671
lowerneck -3.65045 -12.9846 -18.1236
upperneck 14.8903 -18.5106 12.7525
head 8.08997 -9.17768 5.16532
rclavicle -7.4743e-014 -1.59028e-014
rhumerus 34.2265 -53.8903 -82.2515
rradius 24.812
rwrist -35.5542
rhand 11.5839 17.4707
rfingers 7.12502
rthumb 36.627 -8.68929
lclavicle -7.4743e-014 -1.59028e-014
lhumerus -14.9951 -26.165 93.2842
lradius 64.6613
lwrist -0.785872
lhand -9.35307 40.953
lfingers 7.12502
lthumb 16.6065 70.2626
rfemur -24.5413 -5.36971 21.4407
rtibia 41.5057
rfoot -7.47131 -0.778402
rtoes -26.3087
lfemur -40.1608 8.53514 -4.74699
ltibia 78.8523
lfoot -19.086 -3.40191
ltoes 2.91217
213
root 11.8936 15.965 9.35505 153.619 -49.3809 -150.121
lowerback 22.4312 -0.182422 3.12493
upperback 7.05103 -0.223814 5.33581
thorax -4.76061 -0.574597 4.08403
lowerneck -4.13822 -12.6862 -18.0213
upperneck 15.2088 -17.9749 12.3073
head 8.13864 -8.9279 5.05597
rclavicle 6.52014e-014 -6.99722e-014
rhumerus 36.6819 -53.1666 -84.9184
rradius 24.4915
rwrist -34.5071
rhand 11.0213 16.962
rfingers 7.12502
rthumb 36.0944 -9.33131
lclavicle 6.52014e-014 -6.99722e-014
lhumerus -13.1279 -28.5481 93.6922
lradius 64.7211
lwrist -0.864585
lhand -9.98184 40.7285
lfingers 7.12502
lthumb 16.0011 70.0876
rfemur -23.7751 -4.5431 21.1232
rtibia 40.4476
rfoot -6.80664 -0.743929
rtoes -25.2871
lfemur -39.4429 6.39614 -3.84171
ltibia 77.5772
lfoot -19.6 -5.62828
ltoes 2.0099
214
root 11.8549 15.9571 9.52123 154.368 -48.0269 -150.682
lowerback 22.4045 -0.225495 3.6055
upperback 7.00924 -0.191264 5.25789
thorax -4.79139 -0.561672 3.71547
lowerneck -4.80507 -12.4201 -17.7834
upperneck 15.5428 -17.4594 11.8454
head 8.21657 -8.67497 4.90669
rclavicle 8.42847e-014 -1.90833e-014
rhumerus 39.4745 -52.6388 -88.0777
rradius 24.2651
rwrist -33.2422
rhand 8.38027 15.3251
rfingers 7.12502
rthumb 33.5885 -11.5491
lclavicle 8.42847e-014 -1.90833e-014
lhumerus -10.9082 -30.9627 93.9147
lradius 64.5682
lwrist -1.12752
lhand -7.63444 39.4552
lfingers 7.12502
lthumb 18.2606 68.6181
rfemur -23.9002 -3.35635 20.9594
rtibia 39.2462
rfoot -5.74242 -0.567946
rtoes -25.9787
lfemur -39.6244 4.82618 -3.03126
ltibia 76.6626
lfoot -19.4732 -7.87421
ltoes 2.72247
215
root 11.8144 15.9294 9.68925 155.177 -46.688 -151.379
lowerback 22.4679 -0.346395 3.8016
upperback 6.98465 -0.319787 5.23305
thorax -4.84396 -0.631637 3.61307
lowerneck -5.56797 -12.0842 -17.7871
upperneck 15.9705 -16.8418 11.5082
head 8.3654 -8.37868 4.84322
rclavicle -1.15295e-014 4.05521e-014
rhumerus 40.4502 -50.824 -89.3587
rradius 24.4052
rwrist -33.6897
rhand 9.44614 15.1862
rfingers 7.12502
rthumb 34.6008 -11.4622
lclavicle -1.15295e-014 4.05521e-014
lhumerus -8.63049 -32.7314 93.9745
lradius 64.2986
lwrist -1.22113
lhand -5.85751 36.3261
lfingers 7.12502
lthumb 19.9693 65.3201
rfemur -23.99 -2.16837 20.6465
rtibia 37.9849
rfoot -4.7098 -0.388005
rtoes -27.5931
lfemur -39.5993 3.60834 -2.52366
ltibia 76.1533
lfoot -19.6692 -9.07334
ltoes -3.26999
216
root 11.7705 15.9115 9.85799 155.688 -45.5978 -151.905
lowerback 22.7486 -0.566238 4.16192
upperback 6.92303 -0.523205 5.03812
thorax -5.0476 -0.733211 3.25938
lowerneck -6.20364 -11.7469 -17.4332
upperneck 16.4013 -16.3057 11.2296
head 8.48097 -8.10806 4.74455
rclavicle -2.3059e-014 2.22639e-014
rhumerus 41.1863 -49.3585 -90.6482
rradius 24.5642
rwrist -34.2258
rhand 9.36476 14.6413
rfingers 7.12502
rthumb 34.5236 -12.0247
lclavicle -2.3059e-014 2.22639e-014
lhumerus -6.25087 -34.9298 93.5429
lradius 64.0354
lwrist -0.707628
lhand -10.8264 33.3891
lfingers 7.12502
lthumb 15.1877 62.8117
rfemur -23.8246 -1.02778 20.2507
rtibia 36.7445
rfoot -3.92392 -0.310697
rtoes -27.0326
lfemur -39.5883 2.49484 -2.17498
ltibia 75.9327
lfoot -19.3548 -10.4521
ltoes -7.36329
217
root 11.7429 15.9198 9.99779 157.257 -43.7482 -153.656
lowerback 22.8205 -0.171971 3.33352
upperback 6.87389 -0.188276 4.67584
thorax -5.15613 -0.558831 3.25007
lowerneck -6.82548 -11.4258 -16.934
upperneck 16.8124 -15.8418 11.075
head 8.6004 -7.85653 4.6565
rclavicle -3.57812e-014 3.49861e-014
rhumerus 42.6366 -48.6055 -92.9227
rradius 24.573
rwrist -33.8234
rhand 15.656 14.0306
rfingers 7.12502
rthumb 40.4688 -11.0523
lclavicle -3.57812e-014 3.49861e-014
lhumerus -3.61152 -37.3735 92.776
lradius 63.6824
lwrist 0.108869
lhand -9.04914 39.4766
lfingers 7.12502
lthumb 16.8991 68.7614
rfemur -24.0138 1.16258 19.4444
rtibia 35.5416
rfoot -2.96932 -0.376703
rtoes -26.1721
lfemur -39.1004 2.62858 -2.36055
ltibia 75.7395
lfoot -18.8135 -12.2257
ltoes -6.82087
218
root 11.6771 15.9112 10.1904 159.005 -43.2777 -155.613
lowerback 22.9134 -0.367624 2.58348
upperback 6.68062 -0.574829 4.22927
thorax -5.40798 -0.72133 3.30169
lowerneck -7.41866 -11.1038 -16.747
upperneck 17.0278 -15.2892 10.8295
head 8.65904 -7.58473 4.59956
rclavicle 4.69132e-014 1.59028e-015
rhumerus 38.6378 -44.3584 -88.6479
rradius 25.8875
rwrist -39.0358
rhand 9.7809 15.7513
rfingers 7.12502
rthumb 34.9185 -10.8238
lclavicle 4.69132e-014 1.59028e-015
lhumerus -0.819927 -39.1993 92.2889
lradius 63.0883
lwrist 0.708418
lhand -8.77946 41.1607
lfingers 7.12502
lthumb 17.1587 70.423
rfemur -24.3003 1.61581 17.5696
rtibia 34.2699
rfoot -1.8872 -0.0383861
rtoes -25.6381
lfemur -39.3449 1.28115 -3.96142
ltibia 75.6425
lfoot -17.9103 -12.4725
ltoes -6.42749
219
root 11.6214 15.9122 10.363 160.551 -42.3967 -157.622
lowerback 23.3278 -0.710043 2.292
upperback 6.45751 -1.06991 3.14275
thorax -5.86501 -0.927068 2.43632
lowerneck -8.00172 -10.5664 -16.1164
upperneck 17.4319 -14.652 11.0815
head 8.77179 -7.22119 4.66084
rclavicle -9.10434e-014 1.27222e-014
rhumerus 38.9021 -43.0426 -90.5263
rradius 26.1426
rwrist -39.8317
rhand 10.1726 15.479
rfingers 7.12502
rthumb 35.2901 -11.0088
lclavicle -9.10434e-014 1.27222e-014
lhumerus 1.71861 -41.1834 90.4937
lradius 62.7871
lwrist 1.61854
lhand -9.56007 40.5248
lfingers 7.12502
lthumb 16.4073 69.8509
rfemur -24.255 2.57816 15.8585
rtibia 32.8017
rfoot -0.871863 0.122174
rtoes -24.4421
lfemur -39.2143 0.873784 -5.6017
ltibia 75.4307
lfoot -17.5154 -11.7389
ltoes -7.98116
220
root 11.5751 15.9141 10.5186 161.845 -41.0739 -159.12
lowerback 22.9209 -0.520171 1.04195
upperback 6.65335 -1.14879 3.1518
thorax -5.42679 -0.971917 3.16376
lowerneck -8.73308 -10.1904 -16.1527
upperneck 17.4749 -13.9427 10.8754
head 8.80086 -6.87596 4.67013
rclavicle -1.98785e-015 1.59028e-015
rhumerus 42.1842 -42.5075 -94.0611
rradius 25.493
rwrist -37.7155
rhand 13.4797 13.9956
rfingers 7.12502
rthumb 38.4187 -11.6884
lclavicle -1.98785e-015 1.59028e-015
lhumerus 4.78354 -41.9902 89.5634
lradius 62.5342
lwrist 1.98386
lhand -9.46026 40.0774
lfingers 7.12502
lthumb 16.5034 69.3955
rfemur -24.2571 3.68989 14.7986
rtibia 31.0868
rfoot 0.424062 0.242383
rtoes -24.8153
lfemur -39.2583 1.54008 -6.83173
ltibia 75.2002
lfoot -17.3647 -10.8826
ltoes -9.28608
221
root 11.55 15.9217 10.6521 162.764 -39.0151 -160.442
lowerback 22.707 0.162359 -0.610594
upperback 6.91277 -0.671962 3.39172
thorax -5.04221 -0.767114 4.236
lowerneck -9.36815 -9.9374 -15.8354
upperneck 17.51 -13.3947 10.272
head 8.77955 -6.62028 4.4691
rclavicle -2.74323e-014 3.02153e-014
rhumerus 42.5331 -40.6403 -94.0156
rradius 25.4654
rwrist -38.2597
rhand 12.7564 13.5241
rfingers 7.12502
rthumb 37.7357 -12.3465
lclavicle -2.74323e-014 3.02153e-014
lhumerus 7.80444 -42.595 89.0365
lradius 61.951
lwrist 1.59135
lhand -9.50802 39.823
lfingers 7.12502
lthumb 16.4574 69.145
rfemur -23.9891 5.42671 14.2926
rtibia 29.1263
rfoot 1.95068 0.232643
rtoes -26.8475
lfemur -38.7552 3.31143 -7.68387
ltibia 74.8648
lfoot -17.1449 -10.2504
ltoes -8.12357
222
root 11.5079 15.9286 10.805 163.115 -37.4164 -161.005
lowerback 23.5265 0.182227 -0.95605
upperback 6.43383 -0.678834 3.23674
thorax -5.98017 -0.731528 4.30707
lowerneck -9.77832 -9.41983 -15.2323
upperneck 18.3177 -12.6842 9.59783
head 8.93626 -6.31333 4.23362
rclavicle 9.54166e-015 -3.33958e-014
rhumerus 41.5933 -39.1013 -93.9733
rradius 25.6168
rwrist -39.0792
rhand 10.915 13.4185
rfingers 7.12502
rthumb 35.9937 -12.8995
lclavicle 9.54166e-015 -3.33958e-014
lhumerus 9.44983 -43.4007 88.7829
lradius 61.2774
lwrist 1.68981
lhand -12.2369 40.7186
lfingers 7.12502
lthumb 13.8287 70.239
rfemur -23.5191 6.55776 14.0936
rtibia 27.1166
rfoot 3.55089 0.124736
rtoes -26.7271
lfemur -38.3341 4.54678 -8.29142
ltibia 74.4766
lfoot -16.8971 -9.2118
ltoes -5.17495
223
root 11.4561 15.9523 10.9678 163.457 -36.1218 -161.512
lowerback 21.8065 0.592025 -2.23314
upperback 7.82461 -0.608313 4.15041
thorax -3.57292 -0.870329 5.93958
lowerneck -11.1307 -9.38714 -15.8021
upperneck 17.5621 -12.0444 9.09067
head 8.84742 -6.0112 4.18728
rclavicle 3.77691e-014 4.77083e-015
rhumerus 44.1075 -36.3042 -93.9095
rradius 25.4035
rwrist -41.3434
rhand 13.3024 12.1266
rfingers 7.12502
rthumb 38.2514 -13.6038
lclavicle 3.77691e-014 4.77083e-015
lhumerus 15.2776 -43.33 87.2842
lradius 60.3394
lwrist 1.4396
lhand -14.6328 41.7212
lfingers 7.12502
lthumb 11.5189 71.3847
rfemur -23.0789 7.37038 13.7748
rtibia 25.2426
rfoot 5.0058 -0.202729
rtoes -24.8694
lfemur -38.016 5.62224 -9.13286
ltibia 73.9351
lfoot -16.9117 -7.65003
ltoes -3.77179
224
root 11.4007 15.9644 11.1263 164.164 -35.3624 -162.326
lowerback 23.6182 -0.163536 -1.61997
upperback 6.39315 -1.31606 2.83396
thorax -6.01752 -1.0348 4.43019
lowerneck -11.2346 -8.49574 -14.6531
upperneck 19.0409 -11.2164 9.0341
head 9.17777 -5.60586 4.11089
rclavicle -4.01545e-014 1.74931e-014
rhumerus 43.6377 -36.8645 -97.1105
rradius 24.8509
rwrist -40.6381
rhand 21.112 11.2589
rfingers 7.12502
rthumb 45.5696 -12.0127
lclavicle -4.01545e-014 1.74931e-014
lhumerus 14.9685 -43.5475 86.8773
lradius 59.9618
lwrist -1.07966
lhand -11.5056 40.6435
lfingers 7.12502
lthumb 14.5334 70.1145
rfemur -22.9248 7.81844 12.9919
rtibia 23.6873
rfoot 6.07141 -0.618702
rtoes -24.7825
lfemur -37.9831 6.36467 -10.515
ltibia 73.225
lfoot -16.8741 -6.00548
ltoes -3.39905
